<?xml version="1.0" standalone="no"?>
<!DOCTYPE svg PUBLIC "-//W3C//DTD SVG 20010904//EN"
 "http://www.w3.org/TR/2001/REC-SVG-20010904/DTD/svg10.dtd">
<svg version="1.0" xmlns="http://www.w3.org/2000/svg"
 width="377.000000pt" height="377.000000pt" viewBox="0 0 377.000000 377.000000"
 preserveAspectRatio="xMidYMid meet">
<metadata>
Created by potrace 1.14, written by Peter Selinger 2001-2017
</metadata>
<g transform="translate(0.000000,377.000000) scale(0.100000,-0.100000)"
fill="#000000" stroke="none">
<path d="M1663 3738 c-93 -87 -132 -128 -153 -157 -13 -19 -19 -31 -13 -28 16
10 -17 -55 -34 -68 -7 -5 -15 -20 -18 -32 -4 -24 -35 -74 -35 -58 0 5 -12 -7
-26 -26 -14 -19 -30 -33 -35 -31 -5 1 -9 -2 -9 -8 0 -5 -7 -10 -14 -10 -8 0
-27 -11 -42 -25 -14 -13 -30 -22 -35 -19 -5 2 -19 -2 -31 -9 -35 -21 -241 -16
-266 6 -10 10 -23 17 -28 17 -6 0 -16 6 -22 12 -7 7 -27 14 -45 15 -110 10
-249 4 -240 -9 2 -5 -1 -8 -7 -8 -6 0 -27 -12 -46 -26 -19 -15 -34 -22 -34
-18 0 5 -5 1 -11 -9 -6 -9 -15 -14 -21 -11 -7 4 -8 2 -4 -4 4 -7 2 -12 -3 -12
-6 0 -11 -7 -11 -16 0 -10 -6 -14 -15 -10 -8 3 -14 2 -13 -2 2 -7 -20 -58 -48
-115 -7 -15 -9 -25 -4 -22 6 3 7 -1 4 -9 -3 -9 -9 -16 -13 -16 -3 0 -7 -18 -9
-41 -1 -22 -3 -44 -4 -47 -1 -7 9 -53 18 -82 3 -8 5 -15 4 -15 -1 0 3 -12 9
-28 6 -15 13 -39 15 -53 3 -14 10 -41 16 -60 7 -19 9 -41 6 -49 -3 -8 -1 -17
5 -21 9 -5 5 -87 -6 -104 -2 -4 -7 -22 -10 -41 -3 -19 -10 -38 -16 -43 -5 -6
-9 -18 -9 -28 0 -10 -4 -18 -10 -18 -5 0 -10 -5 -10 -11 0 -13 -50 -63 -50
-51 -1 4 -7 -4 -15 -18 -7 -14 -17 -25 -22 -24 -4 0 -16 -10 -27 -23 -10 -13
-21 -22 -23 -19 -3 3 -18 -1 -34 -10 -16 -8 -29 -11 -29 -7 0 5 -7 -1 -15 -11
-8 -11 -15 -17 -15 -13 0 13 -54 -21 -99 -62 -24 -23 -47 -41 -52 -41 -5 0 -9
-112 -9 -250 0 -196 3 -250 13 -250 7 0 19 -9 27 -20 8 -11 20 -20 27 -20 7 0
13 -4 13 -10 0 -5 7 -10 15 -10 8 0 15 -4 15 -10 0 -5 14 -10 30 -10 17 0 30
-4 30 -10 0 -5 7 -10 15 -10 8 0 15 -4 15 -10 0 -5 9 -10 20 -10 11 0 20 -4
20 -10 0 -5 7 -10 15 -10 8 0 15 -4 15 -10 0 -5 7 -10 15 -10 8 0 15 -4 15
-10 0 -5 5 -10 10 -10 27 0 94 -89 114 -154 33 -100 27 -212 -18 -348 -37
-112 -38 -135 -16 -217 24 -86 43 -125 76 -158 13 -13 24 -28 24 -33 0 -6 6
-10 13 -10 7 0 19 -9 27 -20 8 -11 24 -20 37 -20 12 0 25 -4 28 -10 3 -5 15
-10 26 -10 10 0 19 -4 19 -10 0 -5 11 -10 25 -10 14 0 25 -4 25 -10 0 -6 30
-10 70 -10 40 0 70 4 70 10 0 6 9 10 20 10 11 0 20 5 20 10 0 6 18 10 40 10
22 0 40 5 40 10 0 6 15 10 34 10 19 0 38 4 41 10 8 13 165 13 165 0 0 -5 14
-10 30 -10 17 0 30 -4 30 -10 0 -5 11 -10 25 -10 14 0 25 -4 25 -10 0 -5 5
-10 11 -10 6 0 24 -13 39 -30 15 -16 31 -30 35 -30 3 0 12 -6 20 -13 17 -18
95 -173 95 -190 0 -8 9 -24 20 -37 11 -13 20 -27 20 -32 0 -4 7 -8 15 -8 9 0
15 -10 15 -26 0 -22 -4 -25 -28 -23 -15 2 -38 -4 -52 -14 -23 -16 -12 -17 243
-17 l268 0 45 30 c24 17 44 35 44 40 0 6 5 10 11 10 15 0 34 24 65 84 15 27
32 56 40 64 8 7 14 20 14 28 0 58 132 189 210 207 14 3 43 10 65 16 64 18 105
22 123 12 9 -5 31 -11 47 -14 17 -3 53 -12 80 -20 94 -30 213 -44 252 -29 16
5 48 16 73 23 46 13 102 45 109 63 2 5 15 21 28 34 13 13 37 51 55 85 43 85
50 180 18 263 -12 33 -29 77 -37 99 -11 30 -14 70 -11 155 4 118 15 158 59
205 84 90 124 125 144 125 8 0 15 4 15 9 0 5 16 15 35 21 19 6 35 15 35 19 0
4 16 13 35 20 19 6 45 24 59 39 106 114 120 151 118 309 -1 128 -14 166 -76
221 -10 9 -29 27 -42 40 -13 12 -28 22 -34 22 -5 0 -10 5 -10 10 0 6 -7 10
-15 10 -8 0 -15 5 -15 10 0 6 -11 10 -25 10 -14 0 -25 5 -25 10 0 6 -45 10
-114 10 -66 0 -117 -4 -121 -10 -3 -5 -15 -10 -26 -10 -10 0 -19 -4 -19 -10 0
-5 -10 -10 -22 -10 -13 0 -33 -13 -47 -30 -13 -17 -29 -30 -36 -30 -8 0 -17
-9 -20 -20 -3 -11 -10 -20 -15 -20 -5 0 -12 -9 -15 -20 -3 -11 -12 -26 -19
-32 -20 -22 -46 -118 -46 -175 0 -53 27 -183 40 -193 14 -11 30 -102 30 -175
0 -67 -4 -84 -36 -146 -32 -65 -92 -139 -111 -139 -5 0 -14 -9 -21 -20 -8 -13
-23 -20 -42 -20 -17 0 -30 -4 -30 -10 0 -5 -7 -10 -15 -10 -8 0 -15 -4 -15
-10 0 -5 -7 -10 -15 -10 -8 0 -15 -4 -15 -10 0 -5 -9 -10 -20 -10 -11 0 -20
-4 -20 -10 0 -5 -5 -10 -10 -10 -28 0 -130 -126 -130 -161 0 -6 -8 -19 -18
-28 -11 -9 -22 -28 -25 -42 -4 -14 -16 -36 -27 -50 -11 -13 -30 -36 -42 -51
-13 -15 -28 -28 -35 -28 -6 0 -15 -9 -18 -20 -3 -11 -15 -20 -26 -20 -10 0
-19 -4 -19 -10 0 -5 -11 -10 -25 -10 -14 0 -25 -4 -25 -10 0 -6 -51 -10 -134
-10 -79 0 -137 4 -141 10 -3 6 -17 10 -31 10 -13 0 -24 5 -24 10 0 6 -7 10
-15 10 -8 0 -30 9 -50 20 -22 12 -54 20 -83 20 -47 0 -102 -18 -102 -32 0 -5
-11 -8 -25 -8 -14 0 -25 -4 -25 -10 0 -5 -11 -10 -24 -10 -14 0 -28 -4 -31
-10 -8 -12 -258 -13 -283 -1 -9 5 -30 15 -47 22 -16 8 -40 23 -51 34 -12 11
-30 28 -40 37 -11 9 -24 23 -31 31 -15 18 -63 117 -63 129 0 5 -11 20 -25 34
-14 14 -25 31 -25 39 0 20 -83 105 -103 105 -9 0 -17 5 -17 10 0 6 -5 10 -10
10 -13 0 -65 51 -72 71 -4 9 -19 20 -34 23 -15 4 -38 17 -49 29 -12 12 -31 28
-43 36 -11 8 -26 27 -33 43 -6 15 -15 28 -19 28 -4 0 -15 20 -25 45 -23 60
-18 204 8 255 40 77 51 124 51 220 -1 86 -4 101 -34 165 -29 61 -34 82 -37
170 -4 95 -3 102 24 147 41 67 96 124 145 149 24 12 56 32 71 45 16 13 37 24
47 24 29 0 70 22 70 36 0 8 12 20 28 28 15 8 38 33 50 55 13 23 35 53 48 66
13 13 24 34 24 45 0 12 7 35 16 53 18 33 113 137 127 137 4 0 37 14 72 30 72
34 142 39 188 15 15 -8 49 -18 75 -24 26 -5 74 -15 107 -21 72 -15 201 -7 260
14 54 20 66 28 113 71 47 44 97 117 129 189 29 63 6 297 -30 317 -7 5 -22 26
-31 47 -10 22 -29 46 -43 53 -14 7 -35 26 -48 41 l-24 28 -193 -1 c-180 0
-194 -2 -215 -21z"/>
<path d="M716 3368 c3 -5 10 -6 15 -3 13 9 11 12 -6 12 -8 0 -12 -4 -9 -9z"/>
<path d="M756 3368 c3 -5 10 -6 15 -3 13 9 11 12 -6 12 -8 0 -12 -4 -9 -9z"/>
<path d="M2815 3317 c-22 -6 -42 -14 -45 -17 -3 -3 -18 -12 -34 -20 -33 -17
-126 -105 -126 -119 0 -5 -6 -16 -14 -24 -23 -23 -47 -126 -56 -242 -5 -60
-16 -130 -24 -154 -21 -57 -77 -140 -112 -166 -15 -11 -33 -26 -40 -32 -7 -7
-19 -13 -28 -13 -8 0 -18 -4 -21 -10 -3 -5 -19 -10 -36 -10 -16 0 -29 -4 -29
-10 0 -5 -9 -10 -19 -10 -11 0 -23 -4 -26 -10 -3 -5 -28 -10 -55 -10 -27 0
-52 5 -55 10 -3 6 -17 10 -31 10 -13 0 -32 4 -42 9 -45 23 -97 31 -195 31 -65
0 -107 -4 -107 -10 0 -5 -13 -10 -29 -10 -17 0 -33 -4 -36 -10 -3 -5 -15 -10
-26 -10 -10 0 -19 -4 -19 -10 0 -5 -9 -10 -19 -10 -26 0 -100 -39 -136 -72
-16 -16 -36 -28 -42 -28 -7 0 -13 -3 -13 -7 0 -5 -25 -34 -55 -67 -30 -32 -55
-64 -55 -70 0 -7 -11 -27 -24 -45 -50 -67 -82 -228 -72 -355 9 -114 38 -218
70 -253 14 -15 26 -35 26 -44 0 -9 13 -32 30 -50 16 -19 45 -51 62 -71 18 -20
38 -37 45 -38 7 0 17 -9 23 -20 6 -11 20 -20 30 -20 11 0 20 -4 20 -10 0 -5 7
-10 15 -10 8 0 15 -3 15 -7 0 -9 49 -33 67 -33 7 0 13 -4 13 -8 0 -10 186 -32
272 -32 37 0 70 4 73 10 3 6 28 10 55 10 44 0 129 32 138 53 2 4 10 7 18 7 8
0 14 5 14 10 0 6 6 10 14 10 8 0 34 19 59 43 25 23 54 49 64 59 54 49 129 166
138 216 4 20 16 54 28 77 33 63 30 214 -6 318 -42 119 -35 203 24 320 12 22
28 48 35 56 42 47 91 91 109 99 42 19 93 32 126 32 50 1 196 24 205 33 4 4 22
7 41 7 18 0 33 5 33 10 0 6 14 10 30 10 17 0 30 4 30 8 0 4 14 16 30 25 42 25
87 75 112 122 11 22 24 42 27 45 34 26 44 206 15 263 -9 18 -20 34 -23 37 -3
3 -14 20 -24 38 -21 38 -52 70 -99 103 -18 13 -41 31 -51 40 -33 30 -209 46
-282 26z"/>
<path d="M1125 3300 c3 -5 12 -10 20 -10 8 0 17 5 20 10 4 6 -5 10 -20 10 -15
0 -24 -4 -20 -10z"/>
<path d="M3336 925 c8 -37 14 -45 14 -19 0 10 -5 26 -10 34 -8 11 -9 7 -4 -15z"/>
<path d="M2510 440 c0 -13 30 -13 50 0 11 7 7 10 -17 10 -18 0 -33 -4 -33 -10z"/>
<path d="M3080 399 c0 -5 5 -7 10 -4 6 3 10 8 10 11 0 2 -4 4 -10 4 -5 0 -10
-5 -10 -11z"/>
<path d="M3015 380 c-3 -5 -2 -10 4 -10 5 0 13 5 16 10 3 6 2 10 -4 10 -5 0
-13 -4 -16 -10z"/>
<path d="M0 25 c0 -10 10 -15 33 -15 30 1 31 1 13 15 -25 19 -46 19 -46 0z"/>
</g>
</svg>
